<?xml version="1.0" encoding="UTF-8"?>
<svg viewBox="0 0 933 622" xmlns="http://www.w3.org/2000/svg">
 <g fill-rule="evenodd">
  <path d="m0 311v-311h933v622h-933v-311zm726-63h-1v1h-1v1h-1v1h-1v1h-3v-1l1-1v-2h1v-1h1v-1l1-1 1-1v-1t3-2q2-3 10-7t17-4q10 0 16 3 7 3 15 9 7 6 14 15t10 19q3 11 3 22 0 12-3 22-3 11-11 22-6 11-14 18t-21 14q-13 8-30 12-17 6-37 8-19 2-44 0-26 0-54-6t-52-14-42-18q-17-10-26-18-10-8-12-9t-6 2q-3 3-16 13t-31 18-43 16q-24 8-54 13t-50 6q-19 1-28-1-9 0-28-5-20-5-34-11-13-6-22-12-9-8-16-17-8-10-12-22t-5-25q-1-12 1-20 2-7 6-17 6-10 9-13 4-4 4-5t2-2 11-6 20-5q12 0 20 3l8 3v1h1v1h1l1 1 1 1h1v1h1v2h-2l-3-1h-2v-1h-1v-1h-4q-3-2-11-1t-14 5q-5 5-9 12t-4 20q0 14 4 19 3 5 8 8t14 3q10 0 24-6 15-6 38-19 24-13 47-27 24-14 41-22 18-8 30-10 13-4 29-3t31 5q15 6 26 13 12 7 13 8t12-7 26-12q15-6 22-6 7-2 25-1t32 4q13 3 32 13t55 34 49 28q12 6 23 6t19-4 12-8q4-5 4-17t-4-19-9-12q-5-4-9-6-5-2-12-2-6 0-10 3-3 3-4 3z" fill="#fefcfb" stroke="#fefcfb"/>
  <path d="m726 248h-1v1h-1v1h-1v1h-1v1h-3v-1l1-1v-2h1v-1h1v-1l1-1 1-1v-1t3-2q2-3 10-7t17-4q10 0 16 3 7 3 15 9 7 6 14 15t10 19q3 11 3 22 0 12-3 22-3 11-11 22-6 11-14 18t-21 14q-13 8-30 12-17 6-37 8-19 2-44 0-26 0-54-6t-52-14-42-18q-17-10-26-18-10-8-12-9t-6 2q-3 3-16 13t-31 18-43 16q-24 8-54 13t-50 6q-19 1-28-1-9 0-28-5-20-5-34-11-13-6-22-12-9-8-16-17-8-10-12-22t-5-25q-1-12 1-20 2-7 6-17 6-10 9-13 4-4 4-5t2-2 11-6 20-5q12 0 20 3l8 3v1h1v1h1l1 1 1 1h1v1h1v2h-2l-3-1h-2v-1h-1v-1h-4q-3-2-11-1t-14 5q-5 5-9 12t-4 20q0 14 4 19 3 5 8 8t14 3q10 0 24-6 15-6 38-19 24-13 47-27 24-14 41-22 18-8 30-10 13-4 29-3t31 5q15 6 26 13 12 7 13 8t12-7 26-12q15-6 22-6 7-2 25-1t32 4q13 3 32 13t55 34 49 28q12 6 23 6t19-4 12-8q4-5 4-17t-4-19-9-12q-5-4-9-6-5-2-12-2-6 0-10 3-3 3-4 3z" fill="#010101" stroke="#010101"/>
 </g>
</svg>
