<?xml version="1.0" encoding="UTF-8"?>
<svg width="500mm" height="279.4mm" clip-rule="evenodd" fill-rule="evenodd" image-rendering="optimizeQuality" shape-rendering="geometricPrecision" text-rendering="geometricPrecision" viewBox="0 0 500 279.4" xmlns="http://www.w3.org/2000/svg">
 <defs>
  <style type="text/css">.fil0 {fill:#1F1A17}</style>
 </defs>
 <path class="fil0" d="m509.99 50.285l5.808 10.476-26.11 32.063c5.8588 6.9816 9.3282 15.442 9.4226 24.589 0.2511 24.318-23.442 44.286-52.911 44.59-22.599 0.2333-42.04-11.166-49.989-27.461-65.181-0.3444-103.03 29.521-138.02 70.984l-233.81 3.322-0.406-5.8683 254.82-44.43c22.053-3.0536 32.368-16.137 63.352-25.766 26.409-6.405 41.082-11.574 50.469-18.856l8e-4 0.0012c2.5498-22.194 25.078-39.72 52.671-40.005 11.843-0.1222 22.818 2.9516 31.727 8.2496l32.972-31.89zm-64.786 31.932c20.98-0.2166 38.161 15.694 38.366 35.53 0.2048 19.836-16.644 36.098-37.624 36.314-20.98 0.2166-38.161-15.694-38.366-35.53-0.2048-19.836 16.644-36.098 37.624-36.314zm-21.817 91.082l10.232-8.7471 13.908 13.872c15.934 7.5645 26.886 22.718 27.068 40.285 0.2619 25.367-22.031 46.172-49.782 46.458-24.199 0.2499-44.568-15.184-49.561-35.959l-0.0015 0.0044c-22.929-24.292-64.734-25.452-110.46-21.81l22.212-23.374c30.003 17.484 61.097 17.853 92.687 10.443l3.3125-1.3076c10.917-11.699 22.004-18.819 40.382-19.865zm-1.4746 11.755c21.266-0.2196 38.676 15.379 38.877 34.834 0.2008 19.455-16.883 35.41-38.149 35.629-21.267 0.2196-38.676-15.379-38.877-34.834-0.2009-19.454 16.882-35.409 38.149-35.629zm-166.14-9.2099c3.7188-1.3348 7.9966 0.029 10.202 3.5036 2.2055 3.4747 1.619 7.9262-1.1717 10.723l-9.0304-14.227zm5.8225 16.263c-3.7189 1.3348-7.9967-0.029-10.202-3.5036-2.2054-3.4746-1.619-7.9261 1.1717-10.723l9.0305 14.227z"/>
</svg>
